<?xml version="1.0" encoding="utf-8"?>
<!-- Generator: Adobe Illustrator 22.1.0, SVG Export Plug-In . SVG Version: 6.00 Build 0)  -->
<svg version="1.1" id="Capa_1" focusable="false" xmlns="http://www.w3.org/2000/svg" xmlns:xlink="http://www.w3.org/1999/xlink"
	 x="0px" y="0px" viewBox="0 0 22 28.2" style="enable-background:new 0 0 22 28.2;" xml:space="preserve">
<path fill="#67666e" d="M22,14.1l-0.7,8.7c-0.2,2.2-3.5,1.9-3.3-0.3l0.5-6.7l-2.3,0.1c0.6,1.1,0.9,2.4,0.9,3.8c0,2.3-0.9,4.3-2.3,5.9l-2.2-2.2
	c3.2-3.5,0.7-9.2-4.1-9.2c-1.4,0-2.7,0.5-3.7,1.4l-2.2-2.2c1.2-1.1,2.8-1.9,4.5-2.2l4.1-4.7L9,5.1L6.1,7.6c-1.6,1.5-3.9-1-2.2-2.5
	l3.7-3.3c0.5-0.5,1.3-0.6,2-0.2c0,0,7.7,4.4,7.7,4.5c0.9,0.6,1.1,2,0.3,2.9l-3.2,3.7l5.8-0.3C21.2,12.2,22.1,13.1,22,14.1L22,14.1z
	 M18.4,5.6c1.5,0,2.8-1.3,2.8-2.8S20,0,18.4,0c-1.5,0-2.8,1.3-2.8,2.8S16.9,5.6,18.4,5.6z M8.6,25.1c-4.4,0-7-5-4.5-8.6l-2.2-2.2
	C0.7,15.8,0,17.6,0,19.6c0,7.2,8.3,11.1,13.8,6.7l-2.2-2.2C10.8,24.8,9.7,25.1,8.6,25.1L8.6,25.1z"/>
</svg>
