<svg id="Layer_2" data-name="Layer 2" xmlns="http://www.w3.org/2000/svg" viewBox="0 0 894.95 129.94"><title>logo</title><path d="M439.23,146.24H362.6V43.83H395v75.65h44.23Z" transform="translate(-54.35 -41.21)" style="fill:#0e1910"/><path d="M519.76,109c0,23.37-16.92,39.52-40.91,39.52-24.14,0-40.75-16-40.75-39.21S454.86,70,479.16,70C503.15,70,519.76,85.81,519.76,109Zm-52.95.31c0,12.45,3.89,19.16,12,19.16,8.31,0,13.07-6.3,13.07-19.22,0-12.3-4.92-19-13.38-19C470.55,90.32,466.81,96.88,466.81,109.34Z" transform="translate(-54.35 -41.21)" style="fill:#0e1910"/><path d="M599.53,136.71c0,9.53-1.23,14.76-4.76,20.14-6.31,9.84-16.82,14.3-34.35,14.3-28.12,0-35.79-6.23-38.13-25H549c1.54,6.37,3.12,9.43,11.58,9.43s11.32-3.72,11.32-14.05v-8c-5.68,6.61-11.32,9.23-20.55,9.23-19.83,0-31.67-13.08-31.67-35.06,0-21.69,12.45-37.87,31.67-37.87,9.84,0,15,3.07,20.25,11.07V72h27.93Zm-51.92-29.18c0,10.31,3.89,15.79,12.51,15.79,8,0,12.35-5.38,12.35-14.61,0-9.84-4.36-17.93-12.35-17.93S547.61,98.46,547.61,107.53Z" transform="translate(-54.35 -41.21)" style="fill:#0e1910"/><rect x="551.43" y="30.76" width="28.96" height="74.27" style="fill:#0e1910"/><path d="M759.37,93.33H738.86V116.1c.25,8.92,1.38,10.15,10.91,10.15h9.6v20c-7.09.61-15.44.92-20.36.92-14.46,0-22.5-2.92-26.5-10.3-2.15-4-2.77-6.76-2.77-15.22L709.59,72l29.27-28.21V72h20.51Z" transform="translate(-54.35 -41.21)" style="fill:#0e1910"/><rect x="711.4" y="30.76" width="28.96" height="74.27" style="fill:#0e1910"/><path d="M835.32,148.09c-24.11,0-40.6-15.38-40.6-38.29,0-23.69,16.34-39.52,40.91-39.52,21.39,0,36.77,12.12,38,30H846.16c-.77-6-4.67-10.08-10.38-10.08-8.19,0-12.41,7-12.41,19.79,0,11.38,4.07,17.79,12.26,17.79,4.43,0,9.91-1.14,11.15-8.67h27.47C871.63,139.06,857.18,148.09,835.32,148.09Z" transform="translate(-54.35 -41.21)" style="fill:#0e1910"/><path d="M921.21,93.33c-1.08-5.23-3.13-6.85-9.59-6.85-5.38,0-7.74,1.79-7.74,4.87,0,3.53,1.59,4.45,16.2,7.07,16,2.92,23.83,6.92,27.06,13.68a24.39,24.39,0,0,1,2.15,10c0,16.45-13.84,26-37.36,26-27.62,0-36.3-10.93-37.68-29h27.17c.61,6.41,1,11.59,10.82,11.59,5.15,0,9-2.31,9-6,0-3.16-.67-4.56-14.36-7.48-13.07-2.77-17.06-4-21.68-6.77-6-3.54-9.38-9.69-9.38-17.07,0-15.07,12.45-23.52,35.06-23.52,23.83,0,34.9,7.06,36.44,23.51Z" transform="translate(-54.35 -41.21)" style="fill:#0e1910"/><path d="M681.66,93.33c-1.07-5-3.12-6.85-9.58-6.85-5.38,0-7.74,1.79-7.74,4.87,0,3.53,1.59,4.45,16.2,7.07,16,2.92,23.83,6.92,27.06,13.68a24.39,24.39,0,0,1,2.15,10c0,16.45-13.84,26-37.36,26-27.61,0-36.3-11.19-37.68-29h27.17c.61,6.15,1,11.59,10.81,11.59,5.16,0,9-2.31,9-6,0-3.16-.66-4.56-14.35-7.48-13.07-2.77-17.07-4-21.68-6.77-6-3.54-9.38-9.69-9.38-17.07,0-15.07,12.45-23.52,35.06-23.52,23.83,0,34.91,7.31,36.44,23.51Z" transform="translate(-54.35 -41.21)" style="fill:#0e1910"/><path d="M127.43,92l36.8,54.28h-38l-10-16.6a89.65,89.65,0,0,1-7.53-14.77,138.53,138.53,0,0,1-8.15,15.23L92,146.24H54.39L91.6,92,54.35,43.83H91.07s16.68,23.37,19,28.6c1.69-3.85,16.9-28.6,16.9-28.6h37.28Z" transform="translate(-54.35 -41.21)" style="fill:#d70917"/><path d="M207.29,43.83c16.76,0,24.45,1.54,31.52,6.3,9.54,6.31,14.92,17.07,14.92,30a34.71,34.71,0,0,1-10.15,25.22c-6.61,6.45-15.07,9.38-28.6,9.38h-18.3v31.52H164.23V43.83ZM196.68,90.57h12.56c9.07.16,12.92-3.22,12.92-10.61s-4.31-10.91-13.54-10.91H196.68Z" transform="translate(-54.35 -41.21)" style="fill:#d70917"/><path d="M356.68,95.19c0,32.14-20.76,53.51-51.51,53.51-31.37,0-52.44-21.22-52.44-53.66s20.91-53.83,52.75-53.83C336.08,41.21,356.68,63.05,356.68,95.19Zm-71.19-.61c0,18.29,6.61,28.9,19.68,28.9,12.76,0,18.91-10.3,18.91-29.68,0-17.22-6.61-27.37-19.07-27.37S285.49,77.2,285.49,94.58Z" transform="translate(-54.35 -41.21)" style="fill:#d70917"/></svg>